<?xml version="1.0" encoding="UTF-8"?>
<svg id="Layer_1" xmlns="http://www.w3.org/2000/svg" version="1.1" viewBox="0 0 1000.9 1078.1">
  <!-- Generator: Adobe Illustrator 30.5.1, SVG Export Plug-In . SVG Version: 2.1.4 Build 3)  -->
  <defs>
    <style>
      .st0 {
        fill: #fdc107;
      }
    </style>
  </defs>
  <path d="M507.5,2c11.1,3.5,21.8,13.2,30.6,21.8,153.2,152.8,309.4,305.1,457.6,462.4,10.1,15.9,5.3,39.2-14.1,43.4-23.2,4.2-40.6-18.5-55.8-33.3-134.9-138.4-270.3-276.5-407.6-412.3-7-5.8-14.2-9.2-21.3-8.8-6.7.3-13.5,4.1-20.1,9.8C336.2,226.2,197,368.9,58.8,512.4c-12,12-29.3,26.6-46.6,18.4-15.3-7.4-15-27.7-6.1-40.3,15.7-23,37.5-41.4,56.2-62.1,13.8-14.2,28.1-27.6,33.7-46.6,9.4-65.6.6-133.6,2.8-199.8.6-21.9-3.2-46,6.7-66.4,7.8-16.1,28.3-23.6,44.2-15.2,14.5,7.5,19.5,24.4,20.6,39.7,1.9,44.5,0,89,0,133.6.7,8.3-2.1,27.3,8.3,28.5,5.6-.2,14.2-9.2,19.3-14.4C282.1,199.3,375.5,104.8,462.8,17.7c12-11.3,27.9-21.9,44.7-16h.2l-.2.3Z"/>
  <path class="st0" d="M76.7,582.6c13,15.2,6.3,37.1,8.1,55.5,1.1,49.2,11.6,99,32,143.8,138.8,326.4,621,328.3,763.1,3.5,26.1-53.4,35.2-114,34.7-173,.1-10-1-20.5,6.5-28.4,19.3-17.5,45.9-4.4,43.2,22.4,6.9,149.1-66.2,296.8-187.8,383.1-246.7,182.1-624.1,72-719.6-223.4-19-52.6-23.6-108.6-23.1-164.2.3-23,25.3-33,42.9-19.2h0Z"/>
</svg>